# This file uses centimeters as units for non-parametric coordinates.

mtllib Inside_Corner_LP.mtl
g default
v 2.996226 0.000000 0.000000
v 2.996226 0.501887 -0.000000
v 2.000000 1.000000 -3.000000
v 2.500000 1.000000 -3.000000
v 3.000000 0.500000 -3.000000
v 2.000000 0.000000 -3.000000
v 2.500000 0.000000 -3.000000
v 3.000000 0.000000 -3.000000
v 2.004639 1.000000 -1.004719
v 2.500432 1.000000 -0.500440
v 2.004639 0.000000 -1.004719
v 2.500432 0.000000 -0.500440
v 0.000000 0.000000 -1.000000
v 0.000000 0.000000 -0.500000
v 0.000000 0.000000 0.000000
v 0.000000 1.000000 -1.000000
v 0.000000 1.000000 -0.500000
v 0.000000 0.500000 0.000000
vt 0.020539 0.012071
vt 0.531997 0.011823
vt 0.935235 0.126844
vt 0.934598 0.015123
vt 0.533083 0.491615
vt 0.100133 0.491825
vt 0.180099 0.491787
vt 0.613049 0.491577
vt 0.824150 0.239202
vt 0.712429 0.239839
vt 0.340030 0.491709
vt 0.711156 0.016397
vt 0.711792 0.128118
vt 0.419995 0.491670
vt 0.020168 0.491864
vt 0.612816 0.011784
vt 0.339875 0.173357
vt 0.419801 0.091984
vt 0.179945 0.173434
vt 0.099940 0.092139
vt 0.713191 0.985814
vt 0.712815 0.868814
vt 0.946814 0.868064
vt 0.947189 0.985063
vt 0.712440 0.751815
vt 0.829440 0.751440
vt 0.339797 0.513390
vt 0.419763 0.513351
vt 0.419956 0.913317
vt 0.339953 0.834736
vt 0.532851 0.513296
vt 0.533083 0.992485
vt 0.612816 0.513258
vt 0.613048 0.992447
vt 0.180022 0.834813
vt 0.100095 0.913472
vt 0.099901 0.513506
vt 0.179866 0.513468
vt 0.020167 0.992130
vt 0.019936 0.513545
vn 0.000000 0.000000 -1.000000
vn 0.000000 0.000000 -1.000000
vn 0.000000 0.000000 -1.000000
vn 0.000000 0.000000 -1.000000
vn 0.000000 0.000000 -1.000000
vn 0.000000 0.000000 -1.000000
vn 0.000000 -1.000000 0.000000
vn 0.000000 -1.000000 0.000000
vn 0.000000 -1.000000 0.000000
vn 0.000000 -1.000000 0.000000
vn 0.000000 -1.000000 0.000000
vn 0.000000 -1.000000 0.000000
vn 0.999999 -0.000000 0.001258
vn 0.999999 -0.000000 0.001258
vn 0.999999 -0.000000 0.001258
vn 0.999999 -0.000000 0.001258
vn -0.999997 0.000000 0.002325
vn -0.999997 0.000000 0.002325
vn -0.999997 0.000000 0.002325
vn -0.999997 0.000000 0.002325
vn 0.000000 1.000000 0.000000
vn 0.613605 0.789613 0.000163
vn 0.483023 0.875608 0.000128
vn 0.000000 1.000000 0.000000
vn 0.707882 0.706331 0.000188
vn 0.707882 0.706331 0.000188
vn -1.000000 0.000000 0.000000
vn -1.000000 0.000000 0.000000
vn -1.000000 0.000000 0.000000
vn -1.000000 0.000000 0.000000
vn -1.000000 0.000000 0.000000
vn -1.000000 0.000000 0.000000
vn 0.000000 1.000000 0.000000
vn -0.000127 0.877201 0.480123
vn -0.000161 0.793146 0.609031
vn 0.000000 1.000000 0.000000
vn -0.000186 0.707883 0.706329
vn -0.000186 0.707883 0.706329
vn 0.000000 0.000000 1.000000
vn 0.000000 0.000000 1.000000
vn 0.000000 0.000000 1.000000
vn 0.000000 0.000000 1.000000
vn 0.000000 -1.000000 0.000000
vn 0.000000 -1.000000 0.000000
vn 0.000000 -1.000000 0.000000
vn 0.000000 -1.000000 0.000000
vn 0.000000 -1.000000 0.000000
vn 0.000000 -1.000000 0.000000
vn -0.002354 0.000000 -0.999997
vn -0.002354 0.000000 -0.999997
vn -0.002354 0.000000 -0.999997
vn -0.002354 0.000000 -0.999997
s 1
g Inside_Corner_LP
usemtl initialShadingGroup
f 3/4/1 4/3/2 7/13/3 6/12/4
f 4/3/2 5/9/5 8/10/6 7/13/3
s 2
f 6/7/7 7/6/8 12/20/9 11/19/10
f 7/6/8 8/15/11 1/1/12 12/20/9
s off
f 1/16/13 8/8/14 5/5/15 2/2/16
f 6/7/17 11/19/18 9/17/19 3/11/20
s 3
f 9/17/21 10/18/22 4/14/23 3/11/24
f 10/18/22 2/2/25 5/5/26 4/14/23
s 4
f 13/21/27 14/22/28 17/23/29 16/24/30
f 14/22/28 15/25/31 18/26/32 17/23/29
s 5
f 16/27/33 17/28/34 10/29/35 9/30/36
f 17/28/34 18/31/37 2/32/38 10/29/35
s off
f 15/33/39 1/34/40 2/32/41 18/31/42
s 6
f 11/35/43 12/36/44 14/37/45 13/38/46
f 12/36/44 1/39/47 15/40/48 14/37/45
s off
f 9/30/49 11/35/50 13/38/51 16/27/52
