# This file uses centimeters as units for non-parametric coordinates.

mtllib Outer_Bend_LP.mtl
g default
v 0.130408 0.000000 -1.000000
v 0.000000 0.000000 -1.000000
v 0.000000 0.000000 -0.047429
v 0.010983 0.000000 -0.342626
v 0.015759 0.000000 -0.378763
v 0.056632 0.000000 -0.687596
v 0.064992 0.000000 -0.723033
v 2.991963 0.000000 -3.000000
v 2.000000 0.000000 -3.000000
v 2.000000 0.000000 -2.879727
v 2.087408 0.000000 -2.903067
v 2.113886 0.000000 -2.910136
v 2.358687 0.000000 -2.953686
v 2.387311 0.000000 -2.958797
v 2.651804 0.000000 -2.986982
v 2.682730 0.000000 -2.990289
v 2.966606 0.000000 -2.999199
v 0.000000 0.000000 -2.000000
v 0.637739 0.000000 -2.000000
v 0.755742 0.000000 -2.143590
v 0.777259 0.000000 -2.164240
v 0.963913 0.000000 -2.340625
v 0.986133 0.000000 -2.357949
v 1.000000 0.000000 -2.368565
v 1.000000 0.000000 -3.000000
v 0.000000 0.000000 -3.000000
v 1.179358 0.000000 -2.505868
v 1.202509 0.000000 -2.520195
v 1.399947 0.000000 -2.642660
v 1.424293 0.000000 -2.654282
v 1.624519 0.000000 -2.754201
v 1.649712 0.000000 -2.763432
v 1.861014 0.000000 -2.842614
v 0.136514 0.000000 -1.025853
v 0.148571 0.000000 -1.059623
v 0.251686 0.000000 -1.348200
v 0.266681 0.000000 -1.379364
v 0.396769 0.000000 -1.645760
v 0.414220 0.000000 -1.673643
v 0.565681 0.000000 -1.911955
v 0.585329 0.000000 -1.936225
vt 0.043469 0.333333
vt 0.000000 0.333333
vt 0.000000 0.015810
vt 0.003661 0.114209
vt 0.005253 0.126254
vt 0.018877 0.229199
vt 0.021664 0.241011
vt 0.997321 1.000000
vt 0.666667 1.000000
vt 0.666667 0.959909
vt 0.695803 0.967689
vt 0.704629 0.970045
vt 0.786229 0.984562
vt 0.795770 0.986266
vt 0.883935 0.995661
vt 0.894243 0.996763
vt 0.988869 0.999733
vt 0.000000 0.666667
vt 0.212580 0.666667
vt 0.251914 0.714530
vt 0.259086 0.721413
vt 0.321304 0.780208
vt 0.328711 0.785983
vt 0.333333 0.789522
vt 0.333333 1.000000
vt 0.000000 1.000000
vt 0.393119 0.835289
vt 0.400836 0.840065
vt 0.466649 0.880887
vt 0.474764 0.884761
vt 0.541506 0.918067
vt 0.549904 0.921144
vt 0.620338 0.947538
vt 0.045505 0.341951
vt 0.049524 0.353208
vt 0.083895 0.449400
vt 0.088894 0.459788
vt 0.132256 0.548587
vt 0.138073 0.557881
vt 0.188560 0.637318
vt 0.195110 0.645408
vn 0.000000 1.000000 0.000000
vn 0.000000 1.000000 0.000000
vn 0.000000 1.000000 0.000000
vn 0.000000 1.000000 0.000000
vn 0.000000 1.000000 0.000000
vn 0.000000 1.000000 0.000000
vn 0.000000 1.000000 0.000000
vn 0.000000 1.000000 0.000000
vn 0.000000 1.000000 0.000000
vn 0.000000 1.000000 0.000000
vn 0.000000 1.000000 0.000000
vn 0.000000 1.000000 0.000000
vn 0.000000 1.000000 0.000000
vn 0.000000 1.000000 0.000000
vn 0.000000 1.000000 0.000000
vn 0.000000 1.000000 0.000000
vn 0.000000 1.000000 0.000000
vn 0.000000 1.000000 0.000000
vn 0.000000 1.000000 0.000000
vn 0.000000 1.000000 0.000000
vn 0.000000 1.000000 0.000000
vn 0.000000 1.000000 0.000000
vn 0.000000 1.000000 0.000000
vn 0.000000 1.000000 0.000000
vn 0.000000 1.000000 0.000000
vn 0.000000 1.000000 0.000000
vn 0.000000 1.000000 0.000000
vn 0.000000 1.000000 0.000000
vn 0.000000 1.000000 0.000000
vn 0.000000 1.000000 0.000000
vn 0.000000 1.000000 0.000000
vn 0.000000 1.000000 0.000000
vn 0.000000 1.000000 0.000000
vn 0.000000 1.000000 0.000000
vn 0.000000 1.000000 0.000000
vn 0.000000 1.000000 0.000000
vn 0.000000 1.000000 0.000000
vn 0.000000 1.000000 0.000000
vn 0.000000 1.000000 0.000000
vn 0.000000 1.000000 0.000000
vn 0.000000 1.000000 0.000000
s 1
g Outer_Bend_LP
usemtl initialShadingGroup
f 1/1/1 2/2/2 3/3/3 4/4/4 5/5/5 6/6/6 7/7/7
f 8/8/8 9/9/9 10/10/10 11/11/11 12/12/12 13/13/13 14/14/14 15/15/15 16/16/16 17/17/17
f 18/18/18 19/19/19 20/20/20 21/21/21 22/22/22 23/23/23 24/24/24 25/25/25 26/26/26
f 10/10/10 9/9/9 25/25/25 24/24/24 27/27/27 28/28/28 29/29/29 30/30/30 31/31/31 32/32/32 33/33/33
f 2/2/2 1/1/1 34/34/34 35/35/35 36/36/36 37/37/37 38/38/38 39/39/39 40/40/40 41/41/41 19/19/19 18/18/18
