# This file uses centimeters as units for non-parametric coordinates.

mtllib Outside_Bend_LP.mtl
g default
v -1.000000 0.000000 0.000000
v -0.500000 0.000000 0.000000
v -0.000000 0.000000 -0.000007
v -1.000000 1.000000 0.000000
v -0.500000 1.000000 0.000000
v -0.000000 0.500000 -0.000007
v 0.192121 1.000000 -2.981458
v 0.517156 1.000000 -2.599390
v 0.841585 0.500000 -2.216714
v 0.188333 0.000000 -2.977671
v 0.512530 0.000000 -2.594764
v 0.841585 0.000000 -2.216714
v 3.000000 1.000000 -3.999907
v 3.000000 1.000000 -3.499962
v 3.000000 0.500000 -3.000000
v 3.000000 0.000000 -3.999925
v 3.000000 0.000000 -3.499981
v 3.000000 0.000000 -3.000000
v -0.672659 1.000000 -1.651632
v -0.673122 0.000000 -1.651172
v -0.221150 0.000000 -1.449881
v 0.225209 0.000000 -1.242973
v 0.225209 0.500000 -1.242973
v -0.219880 1.000000 -1.451150
v -0.298324 0.000000 -2.373630
v -0.296324 1.000000 -2.375629
v 0.098294 1.000000 -2.076738
v 0.488527 0.500000 -1.773458
v 0.488527 0.000000 -1.773458
v 0.095435 0.000000 -2.073880
v -0.916998 1.000000 -0.842735
v -0.916998 0.000000 -0.842735
v -0.426605 0.000000 -0.745206
v 0.059434 0.000000 -0.643329
v 0.059434 0.500000 -0.643329
v -0.426605 1.000000 -0.745204
v -0.979199 1.000000 -0.423406
v -0.979199 0.000000 -0.423406
v -0.481607 0.000000 -0.374401
v 0.015662 0.000000 -0.325089
v 0.015662 0.500000 -0.325089
v -0.481607 1.000000 -0.374400
v -0.813994 0.000000 -1.253958
v -0.813994 1.000000 -1.253956
v -0.337896 1.000000 -1.106465
v 0.129616 0.500000 -0.950385
v 0.129616 0.000000 -0.950385
v -0.338480 0.000000 -1.105883
v -0.499356 1.000000 -2.026918
v -0.500571 0.000000 -2.025705
v -0.076049 0.000000 -1.773584
v 0.345183 0.000000 -1.518166
v 0.345183 0.500000 -1.518166
v -0.074016 1.000000 -1.775615
v -0.068185 0.000000 -2.691738
v -0.065311 1.000000 -2.694611
v 0.295743 1.000000 -2.351971
v 0.654290 0.500000 -2.006819
v 0.654290 0.000000 -2.006819
v 0.292012 0.000000 -2.348241
v 1.441076 1.000000 -3.765313
v 1.441076 0.000000 -3.765328
v 1.614365 0.000000 -3.285362
v 1.789360 0.000000 -2.807076
v 1.789360 0.500000 -2.807076
v 1.615660 1.000000 -3.286643
v 2.183810 0.000000 -3.943483
v 2.183810 1.000000 -3.943466
v 2.275695 1.000000 -3.447462
v 2.368217 0.500000 -2.952076
v 2.368217 0.000000 -2.952076
v 2.275695 0.000000 -3.447480
v 0.774860 1.000000 -3.446783
v 0.774860 0.000000 -3.446795
v 1.021384 0.000000 -2.999801
v 1.277476 0.000000 -2.562371
v 1.277476 0.500000 -2.562371
v 1.027760 1.000000 -3.006177
v 0.474251 1.000000 -3.234164
v 0.469901 0.000000 -3.229815
v 0.755966 0.000000 -2.812178
v 1.049585 0.000000 -2.402095
v 1.049585 0.500000 -2.402095
v 0.761483 1.000000 -2.817696
v 1.097291 0.000000 -3.623533
v 1.097291 1.000000 -3.623519
v 1.313638 1.000000 -3.163233
v 1.524398 0.500000 -2.697336
v 1.524398 0.000000 -2.697336
v 1.307859 0.000000 -3.157456
v 1.803455 1.000000 -3.871342
v 1.803455 0.000000 -3.871358
v 1.936714 0.000000 -3.381044
v 2.071146 0.000000 -2.891869
v 2.071146 0.500000 -2.891869
v 1.936714 1.000000 -3.381026
v 2.583390 0.000000 -3.985923
v 2.583390 1.000000 -3.985905
v 2.630924 1.000000 -3.486892
v 2.678636 0.500000 -2.988040
v 2.678636 0.000000 -2.988040
v 2.630924 0.000000 -3.486912
vt 0.179866 0.011994
vt 0.099901 0.012033
vt 0.419763 0.011878
vt 0.339797 0.011916
vt 0.019936 0.012071
vt 0.532851 0.011823
vt 0.533083 0.491615
vt 0.100133 0.491825
vt 0.180099 0.491787
vt 0.613049 0.491577
vt 0.712440 0.250342
vt 0.829440 0.249967
vt 0.713191 0.484340
vt 0.947189 0.483590
vt 0.946814 0.366591
vt 0.712815 0.367341
vt 0.340030 0.491709
vt 0.419995 0.491670
vt 0.020168 0.491864
vt 0.612816 0.011784
vt 0.339797 0.511580
vt 0.419763 0.511541
vt 0.419995 0.991333
vt 0.340030 0.991372
vt 0.532851 0.511486
vt 0.533083 0.991279
vt 0.934598 0.514786
vt 0.935235 0.626508
vt 0.711792 0.627781
vt 0.711156 0.516060
vt 0.824150 0.738866
vt 0.712429 0.739502
vt 0.180099 0.991450
vt 0.100133 0.991488
vt 0.099901 0.511696
vt 0.179866 0.511657
vt 0.020168 0.991527
vt 0.019936 0.511735
vt 0.612816 0.511447
vt 0.613049 0.991240
vt 0.339913 0.251813
vt 0.179983 0.251890
vt 0.100017 0.251929
vt 0.020052 0.251968
vt 0.612933 0.251680
vt 0.532967 0.251719
vt 0.419879 0.251774
vt 0.180041 0.371838
vt 0.339972 0.371761
vt 0.419937 0.371722
vt 0.533025 0.371667
vt 0.020110 0.371916
vt 0.612991 0.371629
vt 0.100075 0.371877
vt 0.339855 0.131865
vt 0.179924 0.131942
vt 0.099959 0.131981
vt 0.019994 0.132020
vt 0.612874 0.131732
vt 0.532909 0.131771
vt 0.419821 0.131826
vt 0.339826 0.071891
vt 0.179895 0.071968
vt 0.099930 0.072007
vt 0.019965 0.072045
vt 0.612845 0.071758
vt 0.532880 0.071797
vt 0.419792 0.071852
vt 0.179954 0.191916
vt 0.339884 0.191839
vt 0.419850 0.191800
vt 0.532938 0.191745
vt 0.020023 0.191994
vt 0.612903 0.191706
vt 0.099988 0.191955
vt 0.339943 0.311787
vt 0.180012 0.311864
vt 0.100046 0.311903
vt 0.020081 0.311942
vt 0.612962 0.311655
vt 0.532996 0.311693
vt 0.419908 0.311748
vt 0.180070 0.431812
vt 0.340001 0.431735
vt 0.419966 0.431696
vt 0.533054 0.431641
vt 0.020139 0.431890
vt 0.613020 0.431603
vt 0.100104 0.431851
vt 0.339913 0.751476
vt 0.179983 0.751553
vt 0.100017 0.751592
vt 0.020052 0.751631
vt 0.612933 0.751344
vt 0.532967 0.751382
vt 0.419879 0.751437
vt 0.180041 0.871502
vt 0.339972 0.871424
vt 0.419937 0.871385
vt 0.533025 0.871330
vt 0.020110 0.871579
vt 0.612991 0.871292
vt 0.100075 0.871540
vt 0.339855 0.631528
vt 0.179924 0.631605
vt 0.099959 0.631644
vt 0.019994 0.631683
vt 0.612874 0.631395
vt 0.532909 0.631434
vt 0.419821 0.631489
vt 0.339826 0.571554
vt 0.179895 0.571631
vt 0.099930 0.571670
vt 0.019965 0.571709
vt 0.612845 0.571421
vt 0.532880 0.571460
vt 0.419792 0.571515
vt 0.179954 0.691579
vt 0.339884 0.691502
vt 0.419850 0.691463
vt 0.532938 0.691408
vt 0.020023 0.691657
vt 0.612903 0.691370
vt 0.099988 0.691618
vt 0.339943 0.811450
vt 0.180012 0.811527
vt 0.100046 0.811566
vt 0.020081 0.811605
vt 0.612962 0.811318
vt 0.532996 0.811356
vt 0.419908 0.811411
vt 0.180070 0.931476
vt 0.340001 0.931398
vt 0.419966 0.931359
vt 0.533054 0.931305
vt 0.020139 0.931553
vt 0.613020 0.931266
vt 0.100104 0.931514
vn 0.000000 0.000000 1.000000
vn 0.000006 0.000000 1.000000
vn 0.000004 0.000000 1.000000
vn 0.000000 0.000000 1.000000
vn 0.000015 0.000000 1.000000
vn 0.000015 0.000000 1.000000
vn 0.000000 1.000000 0.000000
vn 0.413336 0.910356 0.020124
vn 0.411292 0.910654 0.039351
vn 0.000000 1.000000 0.000000
vn 0.706805 0.706571 0.034412
vn 0.704693 0.706312 0.067318
vn 0.000000 -1.000000 0.000000
vn 0.000000 -1.000000 0.000000
vn 0.000000 -1.000000 0.000000
vn 0.000000 -1.000000 0.000000
vn 0.000000 -1.000000 0.000000
vn 0.000000 -1.000000 0.000000
vn 0.998841 0.000000 0.048124
vn 0.995760 0.000000 0.091994
vn 0.995760 0.000000 0.091994
vn 0.998841 0.000000 0.048124
vn -0.995185 0.000000 -0.098017
vn -0.995185 0.000000 -0.098017
vn -0.998795 0.000000 -0.049068
vn -0.998795 0.000000 -0.049068
vn 0.000000 1.000000 0.000000
vn 0.281770 0.906050 0.315720
vn 0.252092 0.913873 0.318253
vn 0.000000 1.000000 0.000000
vn 0.470022 0.708319 0.526654
vn 0.438866 0.710393 0.550217
vn 1.000000 0.000000 0.000000
vn 1.000000 0.000000 0.000000
vn 1.000000 0.000000 0.000000
vn 1.000000 0.000000 0.000000
vn 1.000000 0.000000 0.000000
vn 1.000000 0.000000 0.000000
vn 0.000000 -1.000000 0.000000
vn 0.000000 -1.000000 0.000000
vn 0.000000 -1.000000 0.000000
vn 0.000000 -1.000000 0.000000
vn 0.000000 -1.000000 0.000000
vn 0.000000 -1.000000 0.000000
vn 0.665351 0.000000 0.746530
vn 0.621341 0.000000 0.783540
vn 0.621341 0.000000 0.783540
vn 0.665351 0.000000 0.746530
vn -0.624130 -0.000413 -0.781320
vn -0.624475 -0.000412 -0.781045
vn -0.667153 -0.000316 -0.744920
vn -0.667153 -0.000316 -0.744921
vn -0.744295 0.000255 -0.667851
vn -0.778686 0.000403 -0.627414
vn -0.778517 0.000402 -0.627624
vn -0.744295 0.000255 -0.667851
vn 0.000000 -1.000000 0.000000
vn 0.000000 -1.000000 0.000000
vn 0.000000 -1.000000 0.000000
vn 0.000000 -1.000000 0.000000
vn 0.000000 -1.000000 0.000000
vn 0.000000 -1.000000 0.000000
vn 0.782198 0.000000 0.623030
vn 0.782198 0.000000 0.623030
vn 0.746134 0.000000 0.665796
vn 0.746134 0.000000 0.665796
vn 0.319669 0.912107 0.256658
vn 0.555725 0.704079 0.442090
vn 0.528752 0.705063 0.472554
vn 0.292814 0.919661 0.261693
vn 0.000000 1.000000 0.000000
vn 0.000000 1.000000 0.000000
vn -0.887451 0.000496 -0.460901
vn -0.887497 0.000496 -0.460814
vn -0.926364 0.000275 -0.376630
vn -0.926351 0.000275 -0.376662
vn 0.000000 1.000000 0.000000
vn 0.385507 0.910430 0.150008
vn 0.369059 0.910509 0.186463
vn 0.000000 1.000000 -0.000000
vn 0.665972 0.700318 0.256976
vn 0.638371 0.700262 0.319555
vn 0.934888 0.000000 0.354944
vn 0.934888 0.000000 0.354944
vn 0.895723 0.000000 0.444612
vn 0.895723 0.000000 0.444612
vn 0.000000 -1.000000 0.000000
vn 0.000000 -1.000000 0.000000
vn 0.000000 -1.000000 0.000000
vn 0.000000 -1.000000 0.000000
vn 0.000000 -1.000000 0.000000
vn 0.000000 -1.000000 0.000000
vn -0.957334 0.000071 -0.288985
vn -0.957334 0.000071 -0.288985
vn 0.000000 -1.000000 0.000000
vn 0.000000 -1.000000 0.000000
vn 0.000000 -1.000000 0.000000
vn 0.963846 0.000000 0.266461
vn 0.963846 0.000000 0.266461
vn 0.397624 0.910468 0.113773
vn 0.685186 0.701854 0.194733
vn 0.000000 1.000000 0.000000
vn -0.980786 0.000000 -0.195088
vn -0.980786 0.000000 -0.195088
vn 0.000000 -1.000000 0.000000
vn 0.000000 -1.000000 0.000000
vn 0.000000 -1.000000 0.000000
vn 0.983797 0.000000 0.179287
vn 0.983797 0.000000 0.179287
vn 0.697491 0.704325 0.132028
vn 0.405955 0.910629 0.077172
vn 0.000000 1.000000 0.000000
vn -0.838537 0.000565 -0.544845
vn -0.838632 0.000565 -0.544698
vn 0.000000 -1.000000 0.000000
vn 0.000000 -1.000000 0.000000
vn 0.000000 -1.000000 0.000000
vn 0.845111 0.000000 0.534591
vn 0.845111 0.000000 0.534591
vn 0.601704 0.701612 0.381698
vn 0.347092 0.911106 0.222291
vn 0.000000 1.000000 -0.000000
vn -0.033591 0.000018 -0.999436
vn -0.068988 0.000017 -0.997618
vn -0.068988 0.000017 -0.997617
vn -0.033591 0.000018 -0.999436
vn 0.000000 -1.000000 0.000000
vn 0.000000 -1.000000 0.000000
vn 0.000000 -1.000000 0.000000
vn 0.000000 -1.000000 0.000000
vn 0.000000 -1.000000 0.000000
vn 0.000000 -1.000000 0.000000
vn 0.075637 0.000000 0.997135
vn 0.075637 0.000000 0.997135
vn 0.037190 0.000000 0.999308
vn 0.037190 0.000000 0.999308
vn 0.030849 0.909592 0.414356
vn 0.051929 0.707983 0.704318
vn 0.025618 0.707067 0.706683
vn 0.015092 0.909096 0.416313
vn 0.000000 1.000000 0.000000
vn 0.000000 1.000000 0.000000
vn -0.233247 0.000016 -0.972418
vn -0.233247 0.000016 -0.972418
vn -0.331144 0.000014 -0.943580
vn -0.331144 0.000014 -0.943580
vn 0.000000 1.000000 0.000000
vn 0.135512 0.913268 0.384160
vn 0.098617 0.911868 0.398462
vn 0.000000 1.000000 0.000000
vn 0.232672 0.713995 0.660360
vn 0.167960 0.712052 0.681742
vn 0.335215 0.000000 0.942142
vn 0.335215 0.000000 0.942142
vn 0.242987 0.000000 0.970030
vn 0.242987 0.000000 0.970030
vn 0.000000 -1.000000 0.000000
vn 0.000000 -1.000000 0.000000
vn 0.000000 -1.000000 0.000000
vn 0.000000 -1.000000 0.000000
vn 0.000000 -1.000000 0.000000
vn 0.000000 -1.000000 0.000000
vn -0.431352 0.000012 -0.902184
vn -0.431352 0.000012 -0.902184
vn 0.000000 -1.000000 0.000000
vn 0.000000 -1.000000 0.000000
vn 0.000000 -1.000000 0.000000
vn 0.431298 0.000000 0.902210
vn 0.431298 0.000000 0.902210
vn 0.174388 0.914254 0.365690
vn 0.301792 0.714560 0.631130
vn 0.000000 1.000000 0.000000
vn -0.530757 -0.000251 -0.847524
vn -0.530756 -0.000251 -0.847524
vn 0.000000 -1.000000 0.000000
vn 0.000000 -1.000000 0.000000
vn 0.000000 -1.000000 0.000000
vn 0.528046 0.000000 0.849216
vn 0.528046 0.000000 0.849216
vn 0.371759 0.713121 0.594352
vn 0.214278 0.914056 0.344364
vn 0.000000 1.000000 0.000000
vn -0.145330 0.000017 -0.989383
vn -0.145330 0.000017 -0.989383
vn 0.000000 -1.000000 0.000000
vn 0.000000 -1.000000 0.000000
vn 0.000000 -1.000000 0.000000
vn 0.156361 0.000000 0.987700
vn 0.156361 0.000000 0.987700
vn 0.107691 0.709779 0.696144
vn 0.063677 0.910503 0.408571
vn 0.000000 1.000000 0.000000
s 1
g Outside_Bend_LP
usemtl initialShadingGroup
f 1/13/1 2/16/2 5/15/3 4/14/4
f 2/16/2 3/11/5 6/12/6 5/15/3
s 2
f 4/4/7 5/3/8 42/68/9 37/62/10
f 5/3/8 6/6/11 41/67/12 42/68/9
s 3
f 38/63/13 39/64/14 2/2/15 1/1/16
f 39/64/14 40/65/17 3/5/18 2/2/15
s 4
f 3/20/19 40/66/20 41/67/21 6/6/22
s 5
f 37/62/23 38/63/24 1/1/25 4/4/26
s 6
f 7/21/27 8/22/28 84/117/29 79/111/30
f 8/22/28 9/25/31 83/116/32 84/117/29
s 7
f 13/27/33 14/28/34 17/29/35 16/30/36
f 14/28/34 15/31/37 18/32/38 17/29/35
s 8
f 80/112/39 81/113/40 11/35/41 10/36/42
f 81/113/40 82/114/43 12/38/44 11/35/41
s 9
f 12/39/45 82/115/46 83/116/47 9/25/48
s 10
f 79/111/49 80/112/50 10/36/51 7/21/52
s 5
f 10/9/53 55/83/54 56/84/55 7/17/56
s 3
f 10/9/57 11/8/58 60/89/59 55/83/60
f 11/8/58 12/19/61 59/87/62 60/89/59
s 4
f 58/86/63 59/88/64 12/10/65 9/7/66
s 2
f 57/85/67 58/86/68 9/7/69 8/18/70
f 56/84/71 57/85/67 8/18/70 7/17/72
s 5
f 49/76/73 50/77/74 20/42/75 19/41/76
s 2
f 19/41/77 24/47/78 54/82/79 49/76/80
f 24/47/78 23/46/81 53/81/82 54/82/79
s 4
f 23/46/83 22/45/84 52/80/85 53/81/86
s 3
f 51/78/87 52/79/88 22/44/89 21/43/90
f 50/77/91 51/78/87 21/43/90 20/42/92
s 5
f 19/41/76 20/42/75 43/69/93 44/70/94
s 3
f 20/42/92 21/43/90 48/75/95 43/69/96
f 21/43/90 22/44/89 47/73/97 48/75/95
s 4
f 46/72/98 47/74/99 22/45/84 23/46/83
s 2
f 45/71/100 46/72/101 23/46/81 24/47/78
f 44/70/102 45/71/100 24/47/78 19/41/77
s 5
f 31/55/103 32/56/104 38/63/24 37/62/23
s 3
f 32/56/105 33/57/106 39/64/14 38/63/13
f 33/57/106 34/58/107 40/65/17 39/64/14
s 4
f 41/67/21 40/66/20 34/59/108 35/60/109
s 2
f 42/68/9 41/67/12 35/60/110 36/61/111
f 37/62/10 42/68/9 36/61/111 31/55/112
s 5
f 44/70/94 43/69/93 32/56/104 31/55/103
s 2
f 31/55/112 36/61/111 45/71/100 44/70/102
f 36/61/111 35/60/110 46/72/101 45/71/100
s 4
f 35/60/109 34/59/108 47/74/99 46/72/98
s 3
f 48/75/95 47/73/97 34/58/107 33/57/106
f 43/69/96 48/75/95 33/57/106 32/56/105
s 5
f 26/49/113 25/48/114 50/77/74 49/76/73
s 3
f 25/48/115 30/54/116 51/78/87 50/77/91
f 30/54/116 29/52/117 52/79/88 51/78/87
s 4
f 53/81/86 52/80/85 29/53/118 28/51/119
s 2
f 54/82/79 53/81/82 28/51/120 27/50/121
f 49/76/80 54/82/79 27/50/121 26/49/122
s 5
f 56/84/55 55/83/54 25/48/114 26/49/113
s 2
f 26/49/122 27/50/121 57/85/67 56/84/71
f 27/50/121 28/51/120 58/86/68 57/85/67
s 4
f 28/51/119 29/53/118 59/88/64 58/86/63
s 3
f 60/89/59 59/87/62 29/52/117 30/54/116
f 55/83/60 60/89/59 30/54/116 25/48/115
s 10
f 16/33/123 97/132/124 98/133/125 13/24/126
s 8
f 16/33/127 17/34/128 102/138/129 97/132/130
f 17/34/128 18/37/131 101/136/132 102/138/129
s 9
f 100/135/133 101/137/134 18/40/135 15/26/136
s 6
f 99/134/137 100/135/138 15/26/139 14/23/140
f 98/133/141 99/134/137 14/23/140 13/24/142
s 10
f 91/125/143 92/126/144 62/91/145 61/90/146
s 6
f 61/90/147 66/96/148 96/131/149 91/125/150
f 66/96/148 65/95/151 95/130/152 96/131/149
s 9
f 65/95/153 64/94/154 94/129/155 95/130/156
s 8
f 93/127/157 94/128/158 64/93/159 63/92/160
f 92/126/161 93/127/157 63/92/160 62/91/162
s 10
f 61/90/146 62/91/145 85/118/163 86/119/164
s 8
f 62/91/162 63/92/160 90/124/165 85/118/166
f 63/92/160 64/93/159 89/122/167 90/124/165
s 9
f 88/121/168 89/123/169 64/94/154 65/95/153
s 6
f 87/120/170 88/121/171 65/95/151 66/96/148
f 86/119/172 87/120/170 66/96/148 61/90/147
s 10
f 73/104/173 74/105/174 80/112/50 79/111/49
s 8
f 74/105/175 75/106/176 81/113/40 80/112/39
f 75/106/176 76/107/177 82/114/43 81/113/40
s 9
f 83/116/47 82/115/46 76/108/178 77/109/179
s 6
f 84/117/29 83/116/32 77/109/180 78/110/181
f 79/111/30 84/117/29 78/110/181 73/104/182
s 10
f 86/119/164 85/118/163 74/105/174 73/104/173
s 6
f 73/104/182 78/110/181 87/120/170 86/119/172
f 78/110/181 77/109/180 88/121/171 87/120/170
s 9
f 77/109/179 76/108/178 89/123/169 88/121/168
s 8
f 90/124/165 89/122/167 76/107/177 75/106/176
f 85/118/166 90/124/165 75/106/176 74/105/175
s 10
f 68/98/183 67/97/184 92/126/144 91/125/143
s 8
f 67/97/185 72/103/186 93/127/157 92/126/161
f 72/103/186 71/101/187 94/128/158 93/127/157
s 9
f 95/130/156 94/129/155 71/102/188 70/100/189
s 6
f 96/131/149 95/130/152 70/100/190 69/99/191
f 91/125/150 96/131/149 69/99/191 68/98/192
s 10
f 98/133/125 97/132/124 67/97/184 68/98/183
s 6
f 68/98/192 69/99/191 99/134/137 98/133/141
f 69/99/191 70/100/190 100/135/138 99/134/137
s 9
f 70/100/189 71/102/188 101/137/134 100/135/133
s 8
f 102/138/129 101/136/132 71/101/187 72/103/186
f 97/132/130 102/138/129 72/103/186 67/97/185
