# This file uses centimeters as units for non-parametric coordinates.

mtllib Wall_LP.mtl
g default
v -1.000000 0.000000 0.000000
v -0.500000 0.000000 0.000000
v 0.000000 0.000000 0.000000
v -1.000000 1.000000 0.000000
v -0.500000 1.000000 0.000000
v 0.000000 0.500000 0.000000
v -1.000000 1.000000 -3.000000
v -0.500000 1.000000 -3.000000
v 0.000000 0.500000 -3.000000
v -1.000000 0.000000 -3.000000
v -0.500000 0.000000 -3.000000
v 0.000000 0.000000 -3.000000
vt 0.179866 0.011994
vt 0.099901 0.012033
vt 0.419763 0.011878
vt 0.339797 0.011916
vt 0.019936 0.012071
vt 0.532851 0.011823
vt 0.935235 0.126844
vt 0.934598 0.015123
vt 0.533083 0.491615
vt 0.100133 0.491825
vt 0.180099 0.491787
vt 0.613049 0.491577
vt 0.712440 0.250342
vt 0.829440 0.249967
vt 0.713191 0.484340
vt 0.947189 0.483590
vt 0.946814 0.366591
vt 0.712815 0.367341
vt 0.824150 0.239202
vt 0.712429 0.239839
vt 0.340030 0.491709
vt 0.711156 0.016397
vt 0.711792 0.128118
vt 0.419995 0.491670
vt 0.020168 0.491864
vt 0.612816 0.011784
vn 0.000000 0.000000 1.000000
vn 0.000000 0.000000 1.000000
vn 0.000000 0.000000 1.000000
vn 0.000000 0.000000 1.000000
vn 0.000000 0.000000 1.000000
vn 0.000000 0.000000 1.000000
vn 0.000000 1.000000 0.000000
vn 0.447214 0.894427 0.000000
vn 0.447214 0.894427 0.000000
vn 0.000000 1.000000 0.000000
vn 0.707107 0.707107 0.000000
vn 0.707107 0.707107 0.000000
vn 0.000000 0.000000 -1.000000
vn 0.000000 0.000000 -1.000000
vn 0.000000 0.000000 -1.000000
vn 0.000000 0.000000 -1.000000
vn 0.000000 0.000000 -1.000000
vn 0.000000 0.000000 -1.000000
vn 0.000000 -1.000000 0.000000
vn 0.000000 -1.000000 0.000000
vn 0.000000 -1.000000 0.000000
vn 0.000000 -1.000000 0.000000
vn 0.000000 -1.000000 0.000000
vn 0.000000 -1.000000 0.000000
vn 1.000000 0.000000 0.000000
vn 1.000000 0.000000 0.000000
vn 1.000000 0.000000 0.000000
vn 1.000000 0.000000 0.000000
vn -1.000000 0.000000 0.000000
vn -1.000000 0.000000 0.000000
vn -1.000000 0.000000 0.000000
vn -1.000000 0.000000 0.000000
s 1
g Wall_LP
usemtl initialShadingGroup
f 1/15/1 2/18/2 5/17/3 4/16/4
f 2/18/2 3/13/5 6/14/6 5/17/3
s 2
f 4/4/7 5/3/8 8/24/9 7/21/10
f 5/3/8 6/6/11 9/9/12 8/24/9
s 3
f 7/8/13 8/7/14 11/23/15 10/22/16
f 8/7/14 9/19/17 12/20/18 11/23/15
s 4
f 10/11/19 11/10/20 2/2/21 1/1/22
f 11/10/20 12/25/23 3/5/24 2/2/21
s off
f 3/26/25 12/12/26 9/9/27 6/6/28
f 10/11/29 1/1/30 4/4/31 7/21/32
